<svg id="Layer_1" data-name="Layer 1" xmlns="http://www.w3.org/2000/svg" viewBox="0 0 100 100"><defs><style>.cls-1{fill:#c6d2dc;stroke:#fff;stroke-miterlimit:10;stroke-width:1.19px;}</style></defs><title>FDS_Icons_Final</title><path d="M71.76,42.82h-2v-2h2Zm-4,0h-2v-2h2Zm-4,0h-2v-2h2Zm-4,0h-2v-2h2Zm-4,0h-2v-2h2Zm-4,0h-2v-2h2Zm-4,0h-2v-2h2Zm-4,0h-2v-2h2Zm-4,0h-2v-2h2Zm-4,0h-2v-2h2Zm-4,0h-2v-2h2Zm-4,0h-2v-2h2Z"/><path d="M71.76,51.51h-2v-2h2Zm-4,0h-2v-2h2Zm-4,0h-2v-2h2Zm-4,0h-2v-2h2Zm-4,0h-2v-2h2Zm-4,0h-2v-2h2Zm-4,0h-2v-2h2Zm-4,0h-2v-2h2Zm-4,0h-2v-2h2Zm-4,0h-2v-2h2Zm-4,0h-2v-2h2Zm-4,0h-2v-2h2Z"/><path d="M23.26,91V87.28h2v1.1l.25.24Zm3.62-3.88-1.46-1.37,1.36-1.46,1.47,1.37Zm-1.62-1.88h-2v-2h2Zm4.35-1-1.46-1.36,1.36-1.46L31,82.77Zm2.73-2.92L30.88,80l1.37-1.47,1.46,1.37Zm-7.08,0h-2v-2h2Zm9.81-2.89L33.61,77,35,75.56l1.46,1.37Zm-9.81-1.11h-2v-2h2ZM37.8,75.47,36.34,74.1l1.37-1.46L39.17,74ZM25.26,73.28h-2v-2h2Zm15.27-.74-1.46-1.36,1.37-1.46,1.46,1.36Zm2.73-2.92L41.8,68.25l1.08-1.15h1.29v2h-.42Zm-18-.34h-2V68.1h.17v-1h1.83Zm50.91-.18h-2v-2h2Zm-4,0h-2v-2h2Zm-4,0h-2v-2h2Zm-4,0h-2v-2h2Zm-4,0h-2v-2h2Zm-4,0h-2v-2h2Zm-4,0h-2v-2h2Zm-4,0h-2v-2h2Zm-26.74,0h-.82A8.33,8.33,0,0,1,19.28,69l.32-2a6.77,6.77,0,0,0,1,.08h.82Zm57-.21-.45-2a5.75,5.75,0,0,0,1.6-.61l1,1.75A8.15,8.15,0,0,1,78.38,68.89Zm-61.27-.58a8.33,8.33,0,0,1-1.9-1.25l1.33-1.5a6.24,6.24,0,0,0,1.43,1Zm65.2-1.6L80.9,65.3a5.93,5.93,0,0,0,1-1.37l1.75,1A7.85,7.85,0,0,1,82.31,66.71ZM13.74,65.33a7.86,7.86,0,0,1-1-2.06l1.92-.57a5.88,5.88,0,0,0,.71,1.55ZM84.5,62.78l-2-.45A6.35,6.35,0,0,0,82.71,61v-.38h2V61A8,8,0,0,1,84.5,62.78ZM12.46,61V59h2V61Zm72.25-2.44h-2v-2h2ZM14.46,57h-2V55h2Zm70.25-2.44h-2v-2h2ZM14.46,53h-2V51h2Zm70.25-2.44h-2v-2h2ZM14.46,49h-2V47h2Zm70.25-2.44h-2v-2h2ZM14.46,45h-2V43h2Zm70.25-2.44h-2v-2h2ZM14.46,41h-2V39h2Zm70.25-2.44h-2v-2h2ZM14.46,37h-2V35h2Zm70.25-2.44h-2v-2h2ZM14.46,33h-2V31h2Zm70.25-2.44h-2v-.32a6.22,6.22,0,0,0-.17-1.43l1.94-.46a8,8,0,0,1,.23,1.89ZM14.55,29.19l-2-.34a8,8,0,0,1,.69-2.17l1.8.88A5.85,5.85,0,0,0,14.55,29.19Zm67.36-2a6.22,6.22,0,0,0-1-1.36l1.4-1.42a8.05,8.05,0,0,1,1.38,1.8ZM16,26.14,14.54,24.8a8.38,8.38,0,0,1,1.74-1.46L17.34,25A6.32,6.32,0,0,0,16,26.14Zm63.46-1.3a6.35,6.35,0,0,0-1.61-.6l.44-1.95a8.16,8.16,0,0,1,2.13.79Zm-60.58-.51-.55-1.92a8.09,8.09,0,0,1,2.25-.31v2A6.45,6.45,0,0,0,18.91,24.33Zm57.2-.23h-2v-2h2Zm-4,0h-2v-2h2Zm-4,0h-2v-2h2Zm-4,0h-2v-2h2Zm-4,0h-2v-2h2Zm-4,0h-2v-2h2Zm-4,0h-2v-2h2Zm-4,0h-2v-2h2Zm-4,0h-2v-2h2Zm-4,0h-2v-2h2Zm-4,0h-2v-2h2Zm-4,0h-2v-2h2Zm-4,0h-2v-2h2Zm-4,0h-2v-2h2Z"/><polygon class="cls-1" points="86.78 84.44 67.28 64.94 74.93 57.3 49.34 54.13 53.26 78.97 60.2 72.03 79.7 91.53 86.78 84.44"/></svg>