<svg id="Layer_1" data-name="Layer 1" xmlns="http://www.w3.org/2000/svg" xmlns:xlink="http://www.w3.org/1999/xlink" viewBox="0 0 100 100"><defs><style>.cls-1{fill:none;}.cls-2{fill:#fff;}.cls-3{fill:#c6d2dc;}.cls-4{fill:#4886ff;}.cls-5{clip-path:url(#clip-path);}</style><clipPath id="clip-path"><rect class="cls-1" x="59.1" y="10.76" width="26.5" height="26.5"/></clipPath></defs><title>FDS_Icons_Final</title><path class="cls-2" d="M74.28,24H19.2a7.09,7.09,0,0,0-7.09,7V61.28a7.09,7.09,0,0,0,7.09,7.1h3.61V84.14L38.62,68.33H74.28a7.09,7.09,0,0,0,7-7.09V31A7.1,7.1,0,0,0,74.28,24Z"/><path class="cls-3" d="M20.15,71H19.2a9.75,9.75,0,0,1-9.74-9.75V31a9.77,9.77,0,0,1,9.74-9.66H74.3A9.79,9.79,0,0,1,84,31v30.2A9.78,9.78,0,0,1,74.28,71H39.72L20.15,90.54Zm54.11-5.35a4.45,4.45,0,0,0,4.4-4.44V31.06a4.47,4.47,0,0,0-4.39-4.41H19.2A4.45,4.45,0,0,0,14.76,31V61.28a4.44,4.44,0,0,0,4.44,4.44h6.26v12L37.52,65.68H74.26Z"/><rect class="cls-3" x="23.93" y="40.41" width="45.51" height="2.65"/><rect class="cls-3" x="23.93" y="48.98" width="45.51" height="2.65"/><path class="cls-4" d="M95.18,23.88a22.83,22.83,0,1,1-23-22.7h.13A22.69,22.69,0,0,1,95.18,23.7Z"/><rect class="cls-4" x="91.32" y="0.61" width="5.91" height="10.46" transform="translate(21.15 65.64) rotate(-42.82)"/><g id="g10"><g id="g12"><g class="cls-5"><g id="g14"><g id="g24"><path id="path26" class="cls-2" d="M68.6,22.33a13.32,13.32,0,0,1,1.61-3,4.55,4.55,0,0,0-3.78-1.9H64.25v2.95h2.21c1,0,1.56.66,2.17,2"/></g><g id="g28"><path id="path30" class="cls-2" d="M73.44,26.32a17.59,17.59,0,0,1-1.36,3,4.49,4.49,0,0,0,3.21,1.27H77.5v-2.9H75.29c-.79,0-1.34-.46-1.85-1.37"/></g><g id="g32"><path id="path34" class="cls-2" d="M66.46,30.63H64.25V27.69h2.21c1.39,0,2-1.34,3-4.18s2.19-6.13,5.8-6.13H77.5v2.95H75.29c-1.38,0-2,1.34-3,4.17s-2.18,6.13-5.8,6.13"/></g><g id="g36"><path id="path38" class="cls-2" d="M81.33,18.86,76,14.44v8.83Z"/></g><g id="g40"><path id="path42" class="cls-2" d="M81.33,29.16,76,24.75v8.81Z"/></g></g></g></g></g></svg>