<svg id="Layer_1" data-name="Layer 1" xmlns="http://www.w3.org/2000/svg" viewBox="0 0 100 100"><defs><style>.cls-1{fill:#fff;}.cls-2,.cls-4,.cls-5{fill:#4886ff;}.cls-3{fill:#8a9dbc;}.cls-4{opacity:0.7;}.cls-4,.cls-5{isolation:isolate;}.cls-5{opacity:0.3;}</style></defs><title>FDS_Icons_Final</title><path class="cls-1" d="M76.28,24H21.2a7.09,7.09,0,0,0-7.09,7V61.28a7.09,7.09,0,0,0,7.09,7.1h3.6V84.14L40.62,68.33H76.28a7.09,7.09,0,0,0,7-7.09V31A7.1,7.1,0,0,0,76.28,24Z"/><path class="cls-2" d="M22.15,71H21.2a9.75,9.75,0,0,1-9.74-9.75V31a9.77,9.77,0,0,1,9.74-9.66H76.3A9.79,9.79,0,0,1,86,31v30.2A9.78,9.78,0,0,1,76.28,71H41.72L22.15,90.54Zm54.11-5.35a4.45,4.45,0,0,0,4.4-4.44V31.06a4.47,4.47,0,0,0-4.39-4.41H21.2A4.45,4.45,0,0,0,16.76,31V61.28a4.44,4.44,0,0,0,4.44,4.44h6.26v12L39.52,65.68H76.26Z"/><g id="Ebene_2" data-name="Ebene 2"><g id="Ebene_1-2" data-name="Ebene 1-2"><path class="cls-3" d="M30.55,50l4-4.58,1.1-1.07H30.57V42h8.89v2.11l-4,4.53-1.1,1.11h5.27v2.41h-9.1Z"/><path class="cls-4" d="M52.46,49.51v2.63H41V49.63l7.48-8.22H41.15V38.78H52.22v2.51l-7.43,8.22Z"/><path class="cls-5" d="M53.82,50l4-4.58,1.09-1.07H53.84V42h8.89v2.11l-4,4.53-1.09,1.11H62.9v2.41H53.82Z"/></g></g></svg>