<svg id="Layer_1" data-name="Layer 1" xmlns="http://www.w3.org/2000/svg" viewBox="0 0 100 100"><defs><style>.cls-1{fill:#fff;}.cls-2,.cls-3,.cls-4{fill:#4886ff;}.cls-3{opacity:0.7;}.cls-3,.cls-4{isolation:isolate;}.cls-4{opacity:0.3;}</style></defs><title>FDS_Icons_Final</title><path class="cls-1" d="M19.14,24H74.22a7.09,7.09,0,0,1,7.09,7V61.28a7.09,7.09,0,0,1-7.09,7.1h-3.6V84.14L54.8,68.33H19.14a7.09,7.09,0,0,1-7-7.09V31A7.1,7.1,0,0,1,19.14,24Z"/><path class="cls-2" d="M20.15,71H19.2a9.75,9.75,0,0,1-9.74-9.75V31a9.77,9.77,0,0,1,9.74-9.66H74.3A9.79,9.79,0,0,1,84,31v30.2A9.78,9.78,0,0,1,74.28,71H39.72L20.15,90.54Zm54.11-5.35a4.45,4.45,0,0,0,4.4-4.44V31.06a4.47,4.47,0,0,0-4.39-4.41H19.2A4.45,4.45,0,0,0,14.76,31V61.28a4.44,4.44,0,0,0,4.44,4.44h6.26v12L37.52,65.68H74.26Z"/><circle class="cls-2" cx="31.59" cy="45.25" r="5.94"/><circle class="cls-3" cx="46.71" cy="45.25" r="5.94"/><circle class="cls-4" cx="61.83" cy="45.25" r="5.94"/></svg>