<svg id="Layer_1" data-name="Layer 1" xmlns="http://www.w3.org/2000/svg" viewBox="0 0 100 100"><defs><style>.cls-1{fill:#fff;}.cls-2{fill:#c6d2dc;}.cls-3{fill:#4886ff;}.cls-4{fill:#ff4a4a;}</style></defs><title>FDS_Icons_Final</title><path class="cls-1" d="M74.28,24H19.2a7.09,7.09,0,0,0-7.09,7V61.28a7.09,7.09,0,0,0,7.09,7.1h3.61V84.14L38.62,68.33H74.28a7.09,7.09,0,0,0,7-7.09V31A7.1,7.1,0,0,0,74.28,24Z"/><path class="cls-2" d="M20.15,71H19.2a9.75,9.75,0,0,1-9.74-9.75V31a9.77,9.77,0,0,1,9.74-9.66H74.3A9.79,9.79,0,0,1,84,31v30.2A9.78,9.78,0,0,1,74.28,71H39.72L20.15,90.54Zm54.11-5.35a4.45,4.45,0,0,0,4.4-4.44V31.06a4.47,4.47,0,0,0-4.39-4.41H19.2A4.45,4.45,0,0,0,14.76,31V61.28a4.44,4.44,0,0,0,4.44,4.44h6.26v12L37.52,65.68H74.26Z"/><rect class="cls-2" x="23.93" y="40.41" width="45.51" height="2.65"/><rect class="cls-2" x="23.93" y="48.98" width="45.51" height="2.65"/><path class="cls-3" d="M95.18,23.88a22.83,22.83,0,1,1-23-22.7h.13A22.69,22.69,0,0,1,95.18,23.7Z"/><rect class="cls-3" x="91.32" y="0.61" width="5.91" height="10.46" transform="translate(21.15 65.64) rotate(-42.82)"/><path class="cls-4" d="M72.38,24.43,86.72,11.89s-6-7.17-14.34-6.58V24.43"/><path class="cls-1" d="M87.44,11.41S76.8,26.11,74.89,27.78A4.49,4.49,0,0,1,69,21C70.83,19.3,87.44,11.41,87.44,11.41Z"/><circle class="cls-3" cx="72.07" cy="24.29" r="2.99"/></svg>