<svg id="Layer_1" data-name="Layer 1" xmlns="http://www.w3.org/2000/svg" viewBox="0 0 100 100"><defs><style>.cls-1{fill:#fff;}.cls-2{fill:#4886ff;}.cls-3{fill:#ff4a4a;}</style></defs><title>FDS_Icons_Final</title><path class="cls-1" d="M77.57,24H22.49a7.09,7.09,0,0,0-7.09,7V61.28a7.09,7.09,0,0,0,7.09,7.1h3.6V84.14L41.91,68.33H77.57a7.09,7.09,0,0,0,7-7.09V31A7.1,7.1,0,0,0,77.57,24Z"/><path class="cls-2" d="M23.44,71h-1a9.75,9.75,0,0,1-9.74-9.75V31a9.77,9.77,0,0,1,9.74-9.66h55.1A9.79,9.79,0,0,1,87.25,31v30.2A9.78,9.78,0,0,1,77.57,71H43L23.44,90.54Zm54.11-5.35A4.45,4.45,0,0,0,82,61.24V31.06a4.47,4.47,0,0,0-4.39-4.41H22.49A4.45,4.45,0,0,0,18.05,31V61.28a4.44,4.44,0,0,0,4.44,4.44h6.26v12L40.81,65.68H77.55Z"/><rect class="cls-3" x="33.5" y="42.87" width="33" height="6.6"/></svg>