<svg id="Layer_1" data-name="Layer 1" xmlns="http://www.w3.org/2000/svg" viewBox="0 0 97 100"><defs><style>.cls-1{fill:none;stroke:#000;stroke-miterlimit:10;stroke-width:1.8px;stroke-dasharray:2.4;}.cls-2{fill:#fff;}.cls-3{fill:#c6d2dc;}</style></defs><title>FDS_Icons_Final</title><line class="cls-1" x1="25.4" y1="41.81" x2="71.6" y2="41.81"/><line class="cls-1" x1="25.4" y1="50.52" x2="71.6" y2="50.52"/><path class="cls-2" d="M59.87,68.77H76.38A7.38,7.38,0,0,0,84,61.61h0V30.87a7.38,7.38,0,0,0-7.58-7.16H17a7.38,7.38,0,0,0-7.58,7.16V61.61A7.38,7.38,0,0,0,17,68.77h3.88V84.85L38,68.77"/><path class="cls-3" d="M18.42,90.54V71.13H17C11.48,71.13,7,66.86,7,61.61V30.87c0-5.25,4.52-9.52,10.08-9.52H76.38c5.56,0,10.08,4.27,10.08,9.52V61.61c0,5.25-4.52,9.52-10.08,9.52H59.87V66.41H76.38a5,5,0,0,0,5.08-4.8V30.87a5,5,0,0,0-5.08-4.8H17A5,5,0,0,0,12,30.87V61.61A5,5,0,0,0,17,66.41h6.38V79.15L36.2,67.1l3.53,3.34Z"/><polygon class="cls-3" points="63.09 78.86 54.45 68.57 63.04 57.7 66.96 60.8 60.9 68.47 66.92 75.64 63.09 78.86"/><path d="M69.9,42.82h-2v-2h2Zm-4,0h-2v-2h2Zm-4,0h-2v-2h2Zm-4,0h-2v-2h2Zm-4,0h-2v-2h2Zm-4,0h-2v-2h2Zm-4,0h-2v-2h2Zm-4,0h-2v-2h2Zm-4,0h-2v-2h2Zm-4,0h-2v-2h2Zm-4,0h-2v-2h2Zm-4,0h-2v-2h2Z"/><path d="M69.9,51.51h-2v-2h2Zm-4,0h-2v-2h2Zm-4,0h-2v-2h2Zm-4,0h-2v-2h2Zm-4,0h-2v-2h2Zm-4,0h-2v-2h2Zm-4,0h-2v-2h2Zm-4,0h-2v-2h2Zm-4,0h-2v-2h2Zm-4,0h-2v-2h2Zm-4,0h-2v-2h2Zm-4,0h-2v-2h2Z"/></svg>