<svg id="Layer_1" data-name="Layer 1" xmlns="http://www.w3.org/2000/svg" viewBox="0 0 100 100"><defs><style>.cls-1{fill:#fff;}.cls-2{fill:#4886ff;}.cls-3{fill:#ff4a4a;}</style></defs><title>FDS_Icons_Final</title><path class="cls-1" d="M76.28,24H21.2a7.09,7.09,0,0,0-7.09,7V61.28a7.09,7.09,0,0,0,7.09,7.1h3.6V84.14L40.62,68.33H76.28a7.09,7.09,0,0,0,7-7.09V31A7.1,7.1,0,0,0,76.28,24Z"/><path class="cls-2" d="M22.15,71H21.2a9.75,9.75,0,0,1-9.74-9.75V31a9.77,9.77,0,0,1,9.74-9.66H76.3A9.79,9.79,0,0,1,86,31v30.2A9.78,9.78,0,0,1,76.28,71H41.72L22.15,90.54Zm54.11-5.35a4.45,4.45,0,0,0,4.4-4.44V31.06a4.47,4.47,0,0,0-4.39-4.41H21.2A4.45,4.45,0,0,0,16.76,31V61.28a4.44,4.44,0,0,0,4.44,4.44h6.26v12L39.52,65.68H76.26Z"/><g id="Ebene_2" data-name="Ebene 2"><g id="Ebene_1-2" data-name="Ebene 1-2"><polygon class="cls-3" points="46.86 37.17 42.66 32.97 29.16 46.47 42.06 59.37 46.26 55.17 40.56 49.47 53.46 49.47 53.46 42.87 41.16 42.87 46.86 37.17"/><rect class="cls-3" x="58.56" y="42.87" width="5.7" height="6.6"/></g></g></svg>