<svg id="Layer_1" data-name="Layer 1" xmlns="http://www.w3.org/2000/svg" viewBox="0 0 100 100"><defs><style>.cls-1{fill:#fff;}.cls-2{fill:#c6d2dc;}.cls-3,.cls-5{fill:#4886ff;}.cls-4{fill:none;stroke-linejoin:bevel;stroke-width:1.17px;stroke-dasharray:1.56;}.cls-4,.cls-5{stroke:#fff;}.cls-5{stroke-miterlimit:10;}.cls-6{fill:#22b573;}</style></defs><title>FDS_Icons_Final</title><path class="cls-1" d="M74.28,24H19.2a7.09,7.09,0,0,0-7.09,7V61.28a7.09,7.09,0,0,0,7.09,7.1h3.61V84.14L38.62,68.33H74.28a7.09,7.09,0,0,0,7-7.09V31A7.1,7.1,0,0,0,74.28,24Z"/><path class="cls-2" d="M20.15,71H19.2a9.75,9.75,0,0,1-9.74-9.75V31a9.77,9.77,0,0,1,9.74-9.66H74.3A9.79,9.79,0,0,1,84,31v30.2A9.78,9.78,0,0,1,74.28,71H39.72L20.15,90.54Zm54.11-5.35a4.45,4.45,0,0,0,4.4-4.44V31.06a4.47,4.47,0,0,0-4.39-4.41H19.2A4.45,4.45,0,0,0,14.76,31V61.28a4.44,4.44,0,0,0,4.44,4.44h6.26v12L37.52,65.68H74.26Z"/><rect class="cls-2" x="23.93" y="40.41" width="45.51" height="2.65"/><rect class="cls-2" x="23.93" y="48.98" width="45.51" height="2.65"/><path class="cls-3" d="M95.18,23.88a22.83,22.83,0,1,1-23-22.7h.13A22.69,22.69,0,0,1,95.18,23.7Z"/><rect class="cls-3" x="91.32" y="0.61" width="5.91" height="10.46" transform="translate(21.15 65.64) rotate(-42.82)"/><circle class="cls-3" cx="72.32" cy="25.54" r="2.57"/><polygon class="cls-4" points="72.3 18.2 61.07 31.02 83.12 31.02 72.3 18.2"/><circle class="cls-5" cx="81.85" cy="29.74" r="2.82"/><circle class="cls-5" cx="62.86" cy="29.74" r="2.82"/><path class="cls-6" d="M72.37,19.28a3.81,3.81,0,0,1-3.87-3.77.22.22,0,0,1,0-.08,3.89,3.89,0,0,1,7.77-.4,2.67,2.67,0,0,1,0,.4,3.83,3.83,0,0,1-3.82,3.85Zm0-8.38c-3.52,0-6-2.31-6-5.61C66.39,2.68,67.9.84,71-.34s3.38-1.83,3.38-2.53c0-1-1-1.21-1.79-1.21A2.6,2.6,0,0,0,70-2l-.79.49L65-2.22,64.45-3a7.72,7.72,0,0,1,8-6.49c4.66,0,7.78,2.72,7.78,6.76,0,3.7-2.71,5.07-5.73,6.25-2.53,1-2.8,1.34-2.8,1.87a.6.6,0,0,0,.57.64h.09A1.61,1.61,0,0,0,73.9,4.75l.91-.42,3.36,1.26.42.89A6.27,6.27,0,0,1,72.37,10.9Z"/><path class="cls-1" d="M72.46-8.76c4.29,0,7.08,2.37,7.08,6.05,0,3.08-2,4.29-5.29,5.59C71.73,3.91,71,4.37,71,5.41a1.3,1.3,0,0,0,1.26,1.34h.11A2.32,2.32,0,0,0,74.56,5l3.37,1.27a5.61,5.61,0,0,1-5.56,3.94c-3.07,0-5.27-1.95-5.27-4.9,0-2.6,1.72-4.1,4.1-5C74.19-.82,75-1.59,75-2.86s-1.12-1.9-2.49-1.9A3.24,3.24,0,0,0,69.29-2.2l-4.18-.69a7,7,0,0,1,7.35-5.87m-.09,21a3.21,3.21,0,0,1,3.19,3.21,3.19,3.19,0,0,1-6.36,0,3.21,3.21,0,0,1,3.17-3.21m.09-22.38a8.38,8.38,0,0,0-8.7,7l1.15,1.63,4.18.69,1.57-1a1.84,1.84,0,0,1,1.91-1.56c1.09,0,1.09.37,1.09.5s0,.74-2.94,1.87c-3.33,1.27-5,3.39-5,6.29a6.1,6.1,0,0,0,4.61,6,4.62,4.62,0,0,0-2.5,4.1,4.58,4.58,0,0,0,9.16,0,4.62,4.62,0,0,0-2.49-4.1,7,7,0,0,0,4.79-4.62l-.84-1.78-2.85-1c2.82-1.18,5.37-2.79,5.37-6.58C80.94-7.17,77.54-10.16,72.46-10.16Zm0,15.5h0A2.21,2.21,0,0,1,73,4.93.69.69,0,0,1,72.41,5.34Z"/></svg>