<svg id="Layer_1" data-name="Layer 1" xmlns="http://www.w3.org/2000/svg" viewBox="0 0 100 100"><defs><style>.cls-1{fill:#fff;}.cls-2{fill:#c6d2dc;}.cls-3{fill:#22b573;}</style></defs><title>FDS_Icons_Final</title><path class="cls-1" d="M76.28,20.25H21.2a7.09,7.09,0,0,0-7.09,7V57.53a7.09,7.09,0,0,0,7.09,7.1h3.6V80.39L40.62,64.58H76.28a7.09,7.09,0,0,0,7-7.09V27.29A7.1,7.1,0,0,0,76.28,20.25Z"/><path class="cls-2" d="M22.15,67.28H21.2a9.75,9.75,0,0,1-9.74-9.75V27.26A9.77,9.77,0,0,1,21.2,17.6H76.3A9.79,9.79,0,0,1,86,27.29v30.2a9.77,9.77,0,0,1-9.68,9.74H41.72L22.15,86.79Zm54.11-5.35a4.45,4.45,0,0,0,4.4-4.44V27.31a4.45,4.45,0,0,0-4.39-4.4H21.2a4.44,4.44,0,0,0-4.44,4.38V57.53A4.45,4.45,0,0,0,21.2,62h6.26V74L39.52,61.93H76.26Z"/><polygon class="cls-3" points="45.21 56.47 30.78 42.03 35.45 37.37 45.21 47.13 63.98 28.37 68.64 33.03 45.21 56.47"/></svg>