<svg id="Layer_1" data-name="Layer 1" xmlns="http://www.w3.org/2000/svg" viewBox="0 0 100 100"><defs><style>.cls-1,.cls-3{fill:#fff;}.cls-2{fill:#c6d2dc;}.cls-3,.cls-4{stroke:#000;stroke-miterlimit:10;stroke-width:3px;}.cls-4{fill:none;}</style></defs><title>FDS_Icons_Final</title><path class="cls-1" d="M74.28,24H19.2a7.09,7.09,0,0,0-7.09,7V61.28a7.09,7.09,0,0,0,7.09,7.1h3.6V84.14L38.62,68.33H74.28a7.09,7.09,0,0,0,7-7.09V31A7.1,7.1,0,0,0,74.28,24Z"/><path class="cls-2" d="M20.15,71H19.2a9.75,9.75,0,0,1-9.74-9.75V31a9.77,9.77,0,0,1,9.74-9.66H74.3A9.79,9.79,0,0,1,84,31v30.2A9.78,9.78,0,0,1,74.28,71H39.72L20.15,90.54Zm54.11-5.35a4.45,4.45,0,0,0,4.4-4.44V31.06a4.47,4.47,0,0,0-4.39-4.41H19.2A4.45,4.45,0,0,0,14.76,31V61.28a4.44,4.44,0,0,0,4.44,4.44h6.26v12L37.52,65.68H74.26Z"/><g id="Ebene_1-2" data-name="Ebene 1-2"><circle class="cls-3" cx="58.07" cy="45.48" r="5.12"/><line class="cls-4" x1="30.24" y1="45.48" x2="53.27" y2="45.48"/><line class="cls-4" x1="34.51" y1="45.8" x2="34.51" y2="52.2"/><line class="cls-4" x1="40.27" y1="45.8" x2="40.27" y2="52.2"/></g></svg>