<svg id="Layer_1" data-name="Layer 1" xmlns="http://www.w3.org/2000/svg" viewBox="0 0 100 100"><defs><style>.cls-1{fill:#fff;}.cls-2{fill:#c6d2dc;}.cls-3{fill:#ff4a4a;}</style></defs><title>FDS_Icons_Final</title><path class="cls-1" d="M74.28,24H19.2a7.09,7.09,0,0,0-7.09,7V61.28a7.09,7.09,0,0,0,7.09,7.1h3.61V84.14L38.62,68.33H74.28a7.09,7.09,0,0,0,7-7.09V31A7.1,7.1,0,0,0,74.28,24Z"/><path class="cls-2" d="M20.15,71H19.2a9.75,9.75,0,0,1-9.74-9.75V31a9.77,9.77,0,0,1,9.74-9.66H74.3A9.79,9.79,0,0,1,84,31v30.2A9.78,9.78,0,0,1,74.28,71H39.72L20.15,90.54Zm54.11-5.35a4.45,4.45,0,0,0,4.4-4.44V31.06a4.47,4.47,0,0,0-4.39-4.41H19.2A4.45,4.45,0,0,0,14.76,31V61.28a4.44,4.44,0,0,0,4.44,4.44h6.26v12L37.52,65.68H74.26Z"/><path class="cls-3" d="M72.9,1.47,51.26,38.94a2.92,2.92,0,0,0,1.06,4,3,3,0,0,0,1.48.4H97.07a2.94,2.94,0,0,0,2.54-4.4L78,1.47a2.92,2.92,0,0,0-5.08,0Z"/><path class="cls-1" d="M75.44,32.88a3.06,3.06,0,0,1,3,3.06,3,3,0,0,1-6,0A3,3,0,0,1,75.44,32.88Zm3-19.68-1,16.69H73.47l-1-16.69Z"/></svg>