<?xml version="1.0" encoding="UTF-8" standalone="no"?>
<!DOCTYPE svg PUBLIC "-//W3C//DTD SVG 1.1//EN" "http://www.w3.org/Graphics/SVG/1.1/DTD/svg11.dtd">
<svg width="100%" height="100%" viewBox="0 0 100 100" version="1.1" xmlns="http://www.w3.org/2000/svg" xmlns:xlink="http://www.w3.org/1999/xlink" xml:space="preserve" xmlns:serif="http://www.serif.com/" style="fill-rule:evenodd;clip-rule:evenodd;stroke-linejoin:round;stroke-miterlimit:1.41421;">
    <path d="M71.76,42.82L69.76,42.82L69.76,40.82L71.76,40.82L71.76,42.82ZM67.76,42.82L65.76,42.82L65.76,40.82L67.76,40.82L67.76,42.82ZM63.76,42.82L61.76,42.82L61.76,40.82L63.76,40.82L63.76,42.82ZM59.76,42.82L57.76,42.82L57.76,40.82L59.76,40.82L59.76,42.82ZM55.76,42.82L53.76,42.82L53.76,40.82L55.76,40.82L55.76,42.82ZM51.76,42.82L49.76,42.82L49.76,40.82L51.76,40.82L51.76,42.82ZM47.76,42.82L45.76,42.82L45.76,40.82L47.76,40.82L47.76,42.82ZM43.76,42.82L41.76,42.82L41.76,40.82L43.76,40.82L43.76,42.82ZM39.76,42.82L37.76,42.82L37.76,40.82L39.76,40.82L39.76,42.82ZM35.76,42.82L33.76,42.82L33.76,40.82L35.76,40.82L35.76,42.82ZM31.76,42.82L29.76,42.82L29.76,40.82L31.76,40.82L31.76,42.82ZM27.76,42.82L25.76,42.82L25.76,40.82L27.76,40.82L27.76,42.82Z" style="fill-rule:nonzero;"/>
    <path d="M71.76,51.51L69.76,51.51L69.76,49.51L71.76,49.51L71.76,51.51ZM67.76,51.51L65.76,51.51L65.76,49.51L67.76,49.51L67.76,51.51ZM63.76,51.51L61.76,51.51L61.76,49.51L63.76,49.51L63.76,51.51ZM59.76,51.51L57.76,51.51L57.76,49.51L59.76,49.51L59.76,51.51ZM55.76,51.51L53.76,51.51L53.76,49.51L55.76,49.51L55.76,51.51ZM51.76,51.51L49.76,51.51L49.76,49.51L51.76,49.51L51.76,51.51ZM47.76,51.51L45.76,51.51L45.76,49.51L47.76,49.51L47.76,51.51ZM43.76,51.51L41.76,51.51L41.76,49.51L43.76,49.51L43.76,51.51ZM39.76,51.51L37.76,51.51L37.76,49.51L39.76,49.51L39.76,51.51ZM35.76,51.51L33.76,51.51L33.76,49.51L35.76,49.51L35.76,51.51ZM31.76,51.51L29.76,51.51L29.76,49.51L31.76,49.51L31.76,51.51ZM27.76,51.51L25.76,51.51L25.76,49.51L27.76,49.51L27.76,51.51Z" style="fill-rule:nonzero;"/>
    <path d="M23.26,91L23.26,87.28L25.26,87.28L25.26,88.38L25.51,88.62L23.26,91ZM26.88,87.12L25.42,85.75L26.78,84.29L28.25,85.66L26.88,87.12ZM25.26,85.24L23.26,85.24L23.26,83.24L25.26,83.24L25.26,85.24ZM29.61,84.24L28.15,82.88L29.51,81.42L31,82.77L29.61,84.24ZM32.34,81.32L30.88,80L32.25,78.53L33.71,79.9L32.34,81.32ZM25.26,81.32L23.26,81.32L23.26,79.32L25.26,79.32L25.26,81.32ZM35.07,78.43L33.61,77L35,75.56L36.46,76.93L35.07,78.43ZM25.26,77.32L23.26,77.32L23.26,75.32L25.26,75.32L25.26,77.32ZM37.8,75.47L36.34,74.1L37.71,72.64L39.17,74L37.8,75.47ZM25.26,73.28L23.26,73.28L23.26,71.28L25.26,71.28L25.26,73.28ZM40.53,72.54L39.07,71.18L40.44,69.72L41.9,71.08L40.53,72.54ZM43.26,69.62L41.8,68.25L42.88,67.1L44.17,67.1L44.17,69.1L43.75,69.1L43.26,69.62ZM25.26,69.28L23.26,69.28L23.26,68.1L23.43,68.1L23.43,67.1L25.26,67.1L25.26,69.28ZM76.17,69.1L74.17,69.1L74.17,67.1L76.17,67.1L76.17,69.1ZM72.17,69.1L70.17,69.1L70.17,67.1L72.17,67.1L72.17,69.1ZM68.17,69.1L66.17,69.1L66.17,67.1L68.17,67.1L68.17,69.1ZM64.17,69.1L62.17,69.1L62.17,67.1L64.17,67.1L64.17,69.1ZM60.17,69.1L58.17,69.1L58.17,67.1L60.17,67.1L60.17,69.1ZM56.17,69.1L54.17,69.1L54.17,67.1L56.17,67.1L56.17,69.1ZM52.17,69.1L50.17,69.1L50.17,67.1L52.17,67.1L52.17,69.1ZM48.17,69.1L46.17,69.1L46.17,67.1L48.17,67.1L48.17,69.1ZM21.43,69.1L20.61,69.1C20.165,69.102 19.72,69.069 19.28,69L19.6,67C19.931,67.051 20.265,67.078 20.6,67.08L21.42,67.08L21.43,69.1ZM78.43,68.89L77.98,66.89C78.541,66.768 79.08,66.562 79.58,66.28L80.58,68.03C79.892,68.422 79.151,68.712 78.38,68.89L78.43,68.89ZM17.16,68.31C16.473,67.982 15.833,67.562 15.26,67.06L16.59,65.56C17.017,65.959 17.499,66.295 18.02,66.56L17.16,68.31ZM82.36,66.71L80.9,65.3C81.297,64.894 81.634,64.432 81.9,63.93L83.65,64.93C83.29,65.584 82.839,66.183 82.31,66.71L82.36,66.71ZM13.74,65.33C13.308,64.696 12.971,64.002 12.74,63.27L14.66,62.7C14.82,63.248 15.059,63.771 15.37,64.25L13.74,65.33ZM84.5,62.78L82.5,62.33C82.617,61.895 82.687,61.45 82.71,61L82.71,60.62L84.71,60.62L84.71,61C84.707,61.599 84.636,62.196 84.5,62.78ZM12.46,61L12.46,59L14.46,59L14.46,61L12.46,61ZM84.71,58.56L82.71,58.56L82.71,56.56L84.71,56.56L84.71,58.56ZM14.46,57L12.46,57L12.46,55L14.46,55L14.46,57ZM84.71,54.56L82.71,54.56L82.71,52.56L84.71,52.56L84.71,54.56ZM14.46,53L12.46,53L12.46,51L14.46,51L14.46,53ZM84.71,50.56L82.71,50.56L82.71,48.56L84.71,48.56L84.71,50.56ZM14.46,49L12.46,49L12.46,47L14.46,47L14.46,49ZM84.71,46.56L82.71,46.56L82.71,44.56L84.71,44.56L84.71,46.56ZM14.46,45L12.46,45L12.46,43L14.46,43L14.46,45ZM84.71,42.56L82.71,42.56L82.71,40.56L84.71,40.56L84.71,42.56ZM14.46,41L12.46,41L12.46,39L14.46,39L14.46,41ZM84.71,38.56L82.71,38.56L82.71,36.56L84.71,36.56L84.71,38.56ZM14.46,37L12.46,37L12.46,35L14.46,35L14.46,37ZM84.71,34.56L82.71,34.56L82.71,32.56L84.71,32.56L84.71,34.56ZM14.46,33L12.46,33L12.46,31L14.46,31L14.46,33ZM84.71,30.56L82.71,30.56L82.71,30.24C82.709,29.758 82.652,29.278 82.54,28.81L84.48,28.35C84.632,28.969 84.709,29.603 84.71,30.24L84.71,30.56ZM14.55,29.19L12.55,28.85C12.675,28.097 12.908,27.367 13.24,26.68L15.04,27.56C14.798,28.077 14.633,28.626 14.55,29.19ZM81.91,27.19C81.64,26.693 81.304,26.236 80.91,25.83L82.31,24.41C82.853,24.942 83.317,25.548 83.69,26.21L81.91,27.19ZM16,26.14L14.54,24.8C15.051,24.237 15.636,23.745 16.28,23.34L17.34,25C16.842,25.316 16.391,25.699 16,26.14ZM79.46,24.84C78.953,24.568 78.411,24.366 77.85,24.24L78.29,22.29C79.033,22.453 79.75,22.719 80.42,23.08L79.46,24.84ZM18.88,24.33L18.33,22.41C19.062,22.201 19.819,22.097 20.58,22.1L20.58,24.1C20.016,24.103 19.454,24.181 18.91,24.33L18.88,24.33ZM76.08,24.1L74.08,24.1L74.08,22.1L76.08,22.1L76.08,24.1ZM72.08,24.1L70.08,24.1L70.08,22.1L72.08,22.1L72.08,24.1ZM68.08,24.1L66.08,24.1L66.08,22.1L68.08,22.1L68.08,24.1ZM64.08,24.1L62.08,24.1L62.08,22.1L64.08,22.1L64.08,24.1ZM60.08,24.1L58.08,24.1L58.08,22.1L60.08,22.1L60.08,24.1ZM56.08,24.1L54.08,24.1L54.08,22.1L56.08,22.1L56.08,24.1ZM52.08,24.1L50.08,24.1L50.08,22.1L52.08,22.1L52.08,24.1ZM48.08,24.1L46.08,24.1L46.08,22.1L48.08,22.1L48.08,24.1ZM44.08,24.1L42.08,24.1L42.08,22.1L44.08,22.1L44.08,24.1ZM40.08,24.1L38.08,24.1L38.08,22.1L40.08,22.1L40.08,24.1ZM36.08,24.1L34.08,24.1L34.08,22.1L36.08,22.1L36.08,24.1ZM32.08,24.1L30.08,24.1L30.08,22.1L32.08,22.1L32.08,24.1ZM28.08,24.1L26.08,24.1L26.08,22.1L28.08,22.1L28.08,24.1ZM24.08,24.1L22.08,24.1L22.08,22.1L24.08,22.1L24.08,24.1Z" style="fill-rule:nonzero;"/>
</svg>
