<?xml version="1.0" encoding="UTF-8" standalone="no"?>
<!DOCTYPE svg PUBLIC "-//W3C//DTD SVG 1.1//EN" "http://www.w3.org/Graphics/SVG/1.1/DTD/svg11.dtd">
<svg width="100%" height="100%" viewBox="0 0 100 100" version="1.1" xmlns="http://www.w3.org/2000/svg" xmlns:xlink="http://www.w3.org/1999/xlink" xml:space="preserve" xmlns:serif="http://www.serif.com/" style="fill-rule:evenodd;clip-rule:evenodd;stroke-linejoin:round;stroke-miterlimit:1.41421;">
    <path d="M74.28,24L19.2,24C15.344,24 12.159,27.145 12.11,31L12.11,61.28C12.11,61.283 12.11,61.287 12.11,61.29C12.11,65.179 15.311,68.38 19.2,68.38L22.81,68.38L22.81,84.14L38.62,68.33L74.28,68.33C78.135,68.281 81.28,65.096 81.28,61.24L81.28,31C81.227,27.18 78.1,24.053 74.28,24Z" style="fill:white;fill-rule:nonzero;"/>
    <path d="M20.15,71L19.2,71C13.855,70.995 9.46,66.595 9.46,61.25L9.46,31C9.52,25.693 13.893,21.356 19.2,21.34L74.3,21.34C79.588,21.388 83.93,25.712 84,31L84,61.2C84.011,66.55 79.63,70.967 74.28,71L39.72,71L20.15,90.54L20.15,71ZM74.26,65.65C76.678,65.623 78.655,63.629 78.66,61.21L78.66,31.06C78.628,28.66 76.669,26.693 74.27,26.65L19.2,26.65C16.8,26.655 14.814,28.6 14.76,31L14.76,61.28C14.76,63.716 16.764,65.72 19.2,65.72L25.46,65.72L25.46,77.72L37.52,65.68L74.26,65.68L74.26,65.65Z" style="fill:rgb(198,210,220);fill-rule:nonzero;"/>
    <g transform="matrix(0.682989,0,0,0.682989,-1.05753,30.1882)">
        <path d="M95.18,23.88C95.18,23.923 95.18,23.966 95.18,24.009C95.18,36.534 84.875,46.839 72.35,46.839C59.826,46.839 49.52,36.534 49.52,24.009C49.52,11.55 59.721,1.273 72.18,1.18L72.31,1.18C72.37,1.18 72.43,1.179 72.491,1.179C84.874,1.179 95.088,11.317 95.18,23.7L95.18,23.88Z" style="fill:rgb(72,134,255);fill-rule:nonzero;"/>
        <g transform="matrix(0.733493,-0.679697,0.679697,0.733493,21.15,65.64)">
            <rect x="91.32" y="0.61" width="5.91" height="10.46" style="fill:rgb(72,134,255);"/>
        </g>
        <path d="M72.38,24.43L86.72,11.89C86.72,11.89 80.72,4.72 72.38,5.31L72.38,24.43" style="fill:rgb(255,74,74);fill-rule:nonzero;"/>
        <path d="M87.44,11.41C87.44,11.41 76.8,26.11 74.89,27.78C74.073,28.49 73.027,28.881 71.945,28.881C69.482,28.881 67.454,26.853 67.454,24.39C67.454,23.09 68.019,21.852 69,21C70.83,19.3 87.44,11.41 87.44,11.41Z" style="fill:white;fill-rule:nonzero;"/>
        <circle cx="72.07" cy="24.29" r="2.99" style="fill:rgb(72,134,255);"/>
    </g>
</svg>
