<svg id="Layer_1" data-name="Layer 1" xmlns="http://www.w3.org/2000/svg" viewBox="0 0 100 100"><defs><style>.cls-1{fill:#fff;}.cls-2{fill:#c6d2dc;}.cls-3{fill:#4886ff;}</style></defs><title>FDS_Icons_Final</title><path class="cls-1" d="M74.28,24H19.2a7.09,7.09,0,0,0-7.09,7V61.28a7.09,7.09,0,0,0,7.09,7.1h3.61V84.14L38.62,68.33H74.28a7.09,7.09,0,0,0,7-7.09V31A7.1,7.1,0,0,0,74.28,24Z"/><path class="cls-2" d="M20.15,71H19.2a9.75,9.75,0,0,1-9.74-9.75V31a9.77,9.77,0,0,1,9.74-9.66H74.3A9.79,9.79,0,0,1,84,31v30.2A9.78,9.78,0,0,1,74.28,71H39.72L20.15,90.54Zm54.11-5.35a4.45,4.45,0,0,0,4.4-4.44V31.06a4.47,4.47,0,0,0-4.39-4.41H19.2A4.45,4.45,0,0,0,14.76,31V61.28a4.44,4.44,0,0,0,4.44,4.44h6.26v12L37.52,65.68H74.26Z"/><rect class="cls-2" x="23.93" y="40.41" width="45.51" height="2.65"/><rect class="cls-2" x="23.93" y="48.98" width="45.51" height="2.65"/><path class="cls-3" d="M95.18,23.88a22.83,22.83,0,1,1-23-22.7h.13A22.69,22.69,0,0,1,95.18,23.7Z"/><rect class="cls-3" x="91.32" y="0.61" width="5.91" height="10.46" transform="translate(21.15 65.64) rotate(-42.82)"/><path class="cls-1" d="M76.44,28.35A4.94,4.94,0,0,1,77.09,31a4.79,4.79,0,0,1-4.43,5.11h-.3a5,5,0,0,1-5.25-3.95l2.89-1A2.35,2.35,0,0,0,72.36,33c.94,0,1.6-.63,1.6-1.89,0-1.78-1.82-2.38-4.49-3.74a4.43,4.43,0,0,1-2.75-4.09,4.51,4.51,0,0,1,1.55-3.64,5.12,5.12,0,0,1-.65-2.62,4.78,4.78,0,0,1,4.43-5.12h.31a4.92,4.92,0,0,1,5.23,4l-2.87.94A2.35,2.35,0,0,0,72.36,15c-.94,0-1.6.63-1.6,1.89,0,1.77,1.8,2.38,4.48,3.74A4.41,4.41,0,0,1,78,24.7,4.49,4.49,0,0,1,76.44,28.35Zm-6.1-6.85a2,2,0,0,0-.79,1.6c0,1.58,2.59,2.28,4.82,3.43a1.93,1.93,0,0,0,.79-1.6C75.16,23.37,72.56,22.66,70.34,21.5Z"/></svg>